HIERARCHY
ROOT ui
{
	 OFFSET 0 0 0
	 CHANNELS 3 XPosition YPosition Z Position
	 EndSite
	 {
	 OFFSET 0 -1 0
	 }
}
ROOT li
{
	 OFFSET 0 0 0
	 CHANNELS 3 XPosition YPosition Z Position
	 EndSite
	 {
	 OFFSET 0 -1 0
	 }
}
ROOT ul
{
	 OFFSET 0 0 0
	 CHANNELS 3 XPosition YPosition Z Position
	 EndSite
	 {
	 OFFSET 0 -1 0
	 }
}
ROOT ll
{
	 OFFSET 0 0 0
	 CHANNELS 3 XPosition YPosition Z Position
	 EndSite
	 {
	 OFFSET 0 -1 0
	 }
}
ROOT tt
{
	 OFFSET 0 0 0
	 CHANNELS 3 XPosition YPosition Z Position
	 EndSite
	 {
	 OFFSET 0 -1 0
	 }
}
ROOT tb
{
	 OFFSET 0 0 0
	 CHANNELS 3 XPosition YPosition Z Position
	 EndSite
	 {
	 OFFSET 0 -1 0
	 }
}
ROOT td
{
	 OFFSET 0 0 0
	 CHANNELS 3 XPosition YPosition Z Position
	 EndSite
	 {
	 OFFSET 0 -1 0
	 }
}
ROOT v
{
	 OFFSET 0 0 0
	 CHANNELS 3 XPosition YPosition Z Position
	 EndSite
	 {
	 OFFSET 0 -1 0
	 }
}
ROOT bn
{
	 OFFSET 0 0 0
	 CHANNELS 3 XPosition YPosition Z Position
	 EndSite
	 {
	 OFFSET 0 -1 0
	 }
}
MOTION
Frames: 10
Frame Time: 0.002
-0.03232662200927734	-0.0025966689586639402	0		0.45067462158203125	-2.3300244140625	0		-1.1162105712890624	0.013393825531005859	0		-0.6394424438476562	-2.641980712890625	0		1.9617960205078124	-0.39336639404296875	0		3.302769775390625	-0.01664230728149414	0		4.43226416015625	0.2468018035888672	0		6.0046123046875	0.5735354614257813	0		-0.3250509948730469	5.83166748046875	0		
-0.022771854400634766	-0.004001811981201172	0		0.4890110778808594	-2.339827880859375	0		-1.1065513916015626	0.020040283203125	0		-0.6240543212890625	-2.64643408203125	0		1.985201171875	-0.4050482177734375	0		3.345373046875	-0.014636134147644043	0		4.4328447265625	0.2462978515625	0		6.00520849609375	0.5729556884765625	0		-0.3090858154296875	5.84019775390625	0		
-0.019238609313964844	-0.001362117052078247	0		0.459638916015625	-2.321782958984375	0		-1.079927978515625	0.029428287506103514	0		-0.6216506958007812	-2.644754638671875	0		1.9899246826171875	-0.3865115966796875	0		3.307896240234375	-0.012612181663513184	0		4.4322724609375	0.23979348754882812	0		6.005728515625	0.5723683471679688	0		-0.291360595703125	5.83766845703125	0		
-0.031745206832885745	0.004455843925476074	0		0.4808285522460938	-2.332426025390625	0		-1.0154007568359376	0.03728418731689453	0		-0.649208984375	-2.634717529296875	0		1.9563914794921875	-0.38149960327148436	0		3.306075439453125	-0.03106789207458496	0		4.43143505859375	0.21928019714355468	0		6.0061650390625	0.5717777709960937	0		-0.17255488586425782	5.84878857421875	0		
-0.026477773666381835	-9.872329831123352E-4	0		0.4541216125488281	-2.329469482421875	0		-1.0210005493164063	0.04201845169067383	0		-0.6061677856445312	-2.650635009765625	0		1.968736328125	-0.38010430908203124	0		3.2813310546875	-0.037235355377197264	0		4.41569873046875	0.21295573425292968	0		6.0024140625	0.5632415771484375	0		-0.2921378479003906	5.83998486328125	0		
-0.026219648361206056	-0.0013910399675369262	0		0.48126837158203123	-2.3332412109375	0		-1.0207410888671875	0.041644428253173826	0		-0.6429727172851563	-2.64953662109375	0		1.9340516357421875	-0.37510964965820315	0		3.311572265625	-0.0391312370300293	0		4.4099248046875	0.20949778747558595	0		6.00367578125	0.5616442260742187	0		-0.2917048034667969	5.83958935546875	0		
-0.030957338333129882	0.003246833086013794	0		0.4315426025390625	-2.323025390625	0		-1.0903145751953125	0.05915917205810547	0		-0.6428419189453125	-2.64994873046875	0		1.9462637939453125	-0.3737431335449219	0		3.28769091796875	-0.045325443267822264	0		4.413955078125	0.19590945434570312	0		5.99900439453125	0.5701327514648438	0		-0.32544009399414064	5.833615234375	0		
0.054162227630615234	-3.1940600275993345E-4	0		0.48660745239257813	-2.3272060546875	0		-1.025047607421875	0.06687503814697265	0		-0.6427390747070313	-2.65038623046875	0		1.9525145263671875	-0.3663091430664063	0		3.292750732421875	-0.05290246963500977	0		4.40211279296875	0.19553395080566408	0		5.99916845703125	0.5695693969726563	0		-0.15880929565429688	5.8599873046875	0		
-0.02268724822998047	0.0012238399982452393	0		0.4566847839355469	-2.32928662109375	0		-1.0308497314453124	0.07149732971191407	0		-0.61276318359375	-2.6602412109375	0		1.952640625	-0.3668033142089844	0		3.297788330078125	-0.060478919982910155	0		4.4060615234375	0.18095712280273438	0		5.99520166015625	0.5610769653320312	0		-0.16057742309570314	5.8615458984375	0		
0.04643366622924805	-1.7215199768543242E-4	0		0.46295391845703127	-2.317857177734375	0		-1.036656005859375	0.07609498596191407	0		-0.6557158203125	-2.665158203125	0		1.914794677734375	-0.3648035888671875	0		3.293849365234375	-0.06593502044677735	0		4.38602001953125	0.16770513916015625	0		5.99943701171875	0.5684967651367188	0		-0.16139897155761718	5.862072265625	0		
